<svg viewBox="0 0 231.62 199.54" xmlns="http://www.w3.org/2000/svg"><path d="M86.039.007c-.893.004-1.79.052-2.678.01-1.248-.111-2.438.375-3.687.283V.298c-2.138.288-4.266.71-6.336 1.332-2.122.537-4.05 1.604-6.076 2.394-5.125 2.336-10.275 4.693-15.043 7.707-1.352 1.053-2.875 1.862-4.203 2.95-1.197.815-2.181 1.879-3.338 2.742-1.523 1.563-3.205 2.992-4.502 4.76-1.664 2.132-3.4 4.21-4.924 6.447-.85.87-1.318 2.014-2.088 2.945-1.757 2.794-3.646 5.535-4.87 8.617-.665 1.961-1.376 3.92-1.71 5.97-.328 2.58-.456 5.277-1.596 7.663-2.439 4.446-5.65 8.396-8.892 12.27-.613.625-1.262 1.222-1.752 1.955C9.888 73.413 5.81 79.31 3.758 86.042c-1.382 3.956-1.537 8.18-1.992 12.293-.27.936-.04 1.93-.313 2.868-.198.803-.025 1.643-.184 2.453-.307 1.163-.077 2.386-.423 3.548.053 1.677-.415 3.297-.315 4.979-.524 2.329-.059 4.743-.305 7.1-.342 1.24-.267 2.558.036 3.798.064 5.192-.001 10.386.03 15.58.279 2.805 1.565 5.4 3.173 7.676 3.038 3.818 6.025 7.693 9.595 11.035 1.25 1.092 2.79 1.765 4.09 2.795 2.037 1.585 4.119 3.106 6.156 4.691 1.851 1.606 3.916 2.946 5.782 4.545 4.344 2.436 8.355 5.414 12.578 8.051a172.29 172.29 0 0 0 16.03 8.84c6.454 3.32 13.27 5.86 20.144 8.164 8.062 2.307 16.418 3.4 24.732 4.11 1.518.373 3.121-.082 4.634.394 4.836.067 9.682-.003 14.521.031.54.011 1.05.241 1.592.252 5.633.036 11.271-.035 16.904.031 1.741.442 3.548.163 5.323.248 1.154.105 2.258-.303 3.406-.3 1.482-.27 2.936-.694 4.36-1.196 1.691-.6 3.48-.812 5.24-1.119.975-.09 1.976.058 2.93-.242 1.977-.193 3.976.069 5.956-.121.945-.307 1.944-.139 2.914-.256 2.93-.529 5.668-1.73 8.494-2.627 5.757-1.913 11.487-3.941 17.39-5.361 2.15-.5 4.4-1.42 5.74-3.26 1.377-1.44 2.839-2.797 4.19-4.26.925-1.355 2.285-2.317 3.266-3.619 1.89-2.185 4.01-4.223 5.377-6.803 1.062-1.476 2.075-3.016 3.43-4.25 1.032-.917 1.764-2.1 2.754-3.06 1.505-2.067 2.498-4.611 2.344-7.2-.013-1.835-1.205-3.344-1.942-4.947-.707-1.297-1.28-2.667-2.029-3.935-.437.169-.877.33-1.295.537.132 1.064.762 1.965 1.178 2.931 1.658 3.427 1.738 7.645-.08 11.023-1.99 3.84-5.247 7.063-9.215 8.819-4.025 1.82-8.471 2.329-12.818 2.752-4.154.175-8.356-.212-12.473.537-1.486.257-2.93.797-4.451.834-1.992.06-3.989-.119-5.97.111-3.23.362-6.396 1.131-9.622 1.512-1.878.217-3.751.513-5.58 1.01-4.704 1.149-9.165 3.163-13.938 4.06-2.936.404-5.933.22-8.846-.297-8.123-1.159-15.977-3.668-23.637-6.552-4.96-1.887-9.874-3.906-14.645-6.242-18.854-9.01-35.852-22.08-48.965-38.385-3.299-3.964-3.466-9.842-1.224-14.348 1.335-2.648 4.016-4.499 6.91-5.026 2.482-.458 5.047-.103 7.418.71 7.829 2.574 15.55 5.477 23.48 7.737 6.689 1.942 13.403 3.838 20.246 5.16 6.038 1.154 12.054 2.408 18.082 3.612 3.529.68 7.034 1.607 10.637 1.777 2.517.138 4.966.781 7.469 1.033 4.333.438 8.686.667 13.04.65 2.469.017 4.94-.129 7.409-.015 3.34-.002 6.691.13 10.02-.222 2.4-.235 4.803-.443 7.195-.766 5.175-.719 10.384-1.282 15.48-2.475 4.474-.998 8.862-2.334 13.225-3.728 4.934-1.657 9.667-3.958 13.902-6.998.937-.651 1.773-1.445 2.754-2.033.805-.67 2.139.219 2.004 1.209.085 2.654-.294 5.297-.596 7.927 1.403-.767 2.197-2.363 2.864-3.78.299-1.827.108-3.87-1.018-5.407-.636-.886-1.111-1.875-1.79-2.729-1.01-1.31-1.695-2.835-2.735-4.12-1.56-1.57-2.698-3.48-4.045-5.217-2.005-3.001-4.244-5.837-6.264-8.829-.35-.434-.206-1.033-.164-1.539.67-.897 1.689-1.383 2.625-1.943 2.186-1.114 4.184-2.557 6.338-3.727.378-.209.695-.51.98-.83-.063-.344-.15-.685-.23-1.023-4.25 2.08-9.049 2.573-13.717 2.69-4.681-.225-9.346-.678-14.025-.903-6.66-.444-13.075-2.41-19.535-3.934-1.424-.315-2.843-.743-4.31-.724.1.798.939 1.04 1.55 1.377 4.628 2.258 9.76 3.036 14.689 4.36 4.159 1.036 8.337 2.037 12.377 3.482.645.227 1.5.729 1.316 1.54-.248 1.023-1.449 1.064-2.287 1.217-3.664.49-7.208 1.937-10.949 1.76-3.86-.212-7.35-2.169-10.369-4.449-3.73-2.852-7.484-5.705-10.773-9.07-1.709-1.733-3.568-3.379-4.844-5.477-.733-1.072.035-2.805 1.39-2.789 1.291.074 2.425.779 3.61 1.229 2.736 1.082 5.331 2.474 8.05 3.6 4.068 1.684 8.466 2.273 12.763 3.093 4.62.931 9.277 1.712 13.977 2.088 2.188.185 4.384.092 6.58.12 4.113.062 8.154-.867 12.113-1.88.8-.161 1.708-.447 2.465.016.494.738.216 1.657.08 2.459.596-.047 1.29-.155 1.67-.668.328-.627.514-1.318.631-2.008.28-1.614.884-3.143 1.402-4.688 1.614-3.472 3.684-6.79 4.504-10.574.634-3.265-.18-6.545-.48-9.802-.505-4.064-1.018-8.166-2.172-12.107-.576-2.088-1.743-4.029-3.326-5.487.104.916.453 1.776.623 2.678.077.54-.503.869-.948.983-1.148.299-2.255-.325-3.271-.778-7.04-3.506-15.033-4.556-22.818-4.426-3.09-.043-6.177.021-9.26.246-3.722.032-7.467.096-11.137.776-5.789 1.01-11.37 2.895-16.924 4.76-1.248.357-2.67.905-3.91.246-.49-.217-.852-.895-.436-1.348 1.121-1.399 2.885-2.005 4.46-2.738 8.206-3.691 17.095-5.952 26.104-6.272 3.348-.183 6.69-.552 10.045-.568 3.791.035 7.576.393 11.328.92 4.65.66 9.307 1.94 13.291 4.494.778.534 1.704.784 2.643.818-.849-1.28-2.198-2.099-3.455-2.924-2.578-1.315-5.17-2.598-7.758-3.892-6.889-3.622-14.069-6.676-21.406-9.274-1.994-.74-3.84-1.802-5.754-2.712-2.818-1.175-5.462-2.737-8.29-3.89-2.95-1.562-6.07-2.803-8.893-4.599-4.543-2.778-9.766-4.506-15.086-4.754-1.95.01-3.9.005-5.846 0-6.166.5-12.353 1.85-17.986 4.493-2.963 1.117-5.675 3.272-8.977 3.193-1.239-.178-2.54-.449-3.558-1.22-2.722-1.787-5.59-3.346-8.237-5.25C103.823 3.532 96.416.315 88.691.256c-.872-.217-1.76-.255-2.654-.25zm-1.74 4.97a79.204 79.204 0 0 1 4.1.102c9.757 1.071 19.242 4.15 27.997 8.54.241.72-.16 1.76-1.04 1.698-3.7.148-7.383.696-11.09.586-2.642-.016-5.294.23-7.856.885-2.54.614-5.168.653-7.764.793-8.175.437-16.46 2.24-23.535 6.51-2.33 1.315-4.388 3.047-6.65 4.467-.841.585-1.763 1.055-2.543 1.722l-.063.702c.526.01 1.055-.068 1.524-.319 4.103-1.982 8.156-4.064 12.27-6.02 2.967-1.447 6.224-2.1 9.442-2.714 6.506-1.484 13.237-1.843 19.881-1.346 2.585.146 5.178-.058 7.758.238 9.885.33 19.885 1.599 29.129 5.276a2.36 2.36 0 0 1 .693.441 4.92 4.92 0 0 1 .004.946c-.344.156-.709.275-1.088.29-3.257.294-6.504.702-9.771.837-1.59-.04-3.176.134-4.76.234-8.34.119-16.664 1.274-24.752 3.314-7.92 2.013-15.082 6.066-22.596 9.15-.432.19-.84.436-1.168.772.468.71 1.378.542 2.09.41 1.646-.33 3.308-.63 4.898-1.185 4.943-1.808 9.742-3.993 14.752-5.615a101.1 101.1 0 0 1 17.203-3.744c6.001-.608 11.99-1.606 18.035-1.518 5.38.357 10.762.96 15.998 2.27 1.15.309 2.322.59 3.393 1.12 1.427.803 2.627 1.94 3.877 2.989.574.397.882 1.33.25 1.816-.33.465-.893.2-1.309.045-2.664-1.11-5.572-1.556-8.445-1.59-1.648.032-3.286-.364-4.932-.224-.415.28-.508.815-.757 1.219 8.128 1.183 15.459 6.43 19.486 13.55 2.225 3.99 3.228 8.647 2.81 13.198-.444 5.305-2.979 10.385-6.916 13.96-3.127 2.825-7.278 4.018-11.236 5.16-3.373.988-6.917.908-10.383 1.233-5.185.291-10.339-.643-15.393-1.703-5.053-1.212-10.214-2.201-14.979-4.35C95.71 76.875 91 73.64 86.951 69.747c-2.267-2.07-4.122-4.536-6.316-6.674-2.28-2.31-4.964-4.289-8.014-5.448-1.241-.479-2.659-.701-3.635-1.685-.908-.815-1.153-2.283-.523-3.328.759-1.013 2.124-1.086 3.277-1.19 5.26-.338 10.434-1.848 15.098-4.295 5.596-2.969 11.5-5.424 17.674-6.892 9.752-2.438 19.911-4.024 29.955-2.81-.246-.526-.335-1.466-1.113-1.39-2.053-.07-4.11.023-6.162.108-2.696.248-5.406.089-8.11.137-5.832-.101-11.715.516-17.295 2.256-5.85 1.776-11.422 4.316-17.15 6.422-4.552 1.718-9.146 3.41-13.94 4.318-1.469.313-2.853.937-4.17 1.643-1.019.542-1.913 1.452-2.141 2.617-.346 1.916.528 4.051 2.22 5.054 1.197.566 2.539.728 3.745 1.266 3.908 1.484 7.045 4.346 10.043 7.166 4.276 4.201 8.36 8.708 13.473 11.928 4.146 2.54 8.7 4.382 13.383 5.66 4.643 1.257 9.4 2.205 14.213 2.448 8.324-.103 16.79.51 24.953-1.504 1.22-.3 2.515-.553 3.76-.225.57.114.795.713.954 1.205-1.633 2.45-4.746 2.889-7.302 3.852-6.045 2.575-12.775 3.209-19.271 2.584-10.12-.942-20.142-3.5-29.26-8.043-6.93-3.442-13.436-7.872-18.783-13.494-.607-.624-1.159-1.319-1.889-1.801-.42-.349-.975.007-1.295.322a1.379 1.379 0 0 0 .106.826c3.389 4.945 7.935 9.03 13.068 12.105a77.46 77.46 0 0 0 9.615 4.926c4.59 2.074 9.147 4.36 14.094 5.473 3.623.836 7.232 2.076 11 1.912.984-.075 1.873.378 2.746.764.72.334 1.53.245 2.3.367l-.073.7c-.745.743-1.79 1.09-2.82 1.198-5.454.566-10.946 1.011-16.429.666-8.225-.745-16.216-2.981-24.156-5.15-3.27-1-6.207-2.87-9.535-3.71-.918-.152-1.757-1.011-2.707-.706-.142.516-.306 1.255.229 1.605 1.65 1.278 3.307 2.57 5.138 3.582 4.197 2.315 8.832 3.655 13.457 4.801 6.21 1.49 12.548 2.33 18.885 3.063 6.12.76 12.35.082 18.29-1.51 6.637-1.818 13.208-4.194 19.003-7.975 1.812-1.18 3.664-2.31 5.397-3.605 2.33-1.725 3.904-4.279 4.967-6.936.334-.754.71-1.66 1.58-1.91 1.379-.013 2.47.995 3.556 1.717 8.32 5.766 15.015 13.51 21.002 21.594 1.241 1.65 2.318 3.477 3.969 4.771.336.32.828.237 1.252.2.145-.255.333-.568.143-.854-.926-1.813-2.04-3.648-2.206-5.725-.14-.86.682-1.326 1.37-1.556 7.303-2.52 15.09-2.922 22.736-3.332a6.412 6.412 0 0 1 4.302 1.389c2.892 2.312 4.741 5.585 6.635 8.697.818 1.553 1.64 3.408.996 5.164-.497 1.467-1.733 2.497-2.902 3.437a37.76 37.76 0 0 1-8.85 4.916c-5.13 2.067-10.57 3.155-15.93 4.428-6.078 1.37-12.257 2.266-18.469 2.736-3.395.434-6.82.327-10.229.58-3.616.046-7.234.01-10.852.02-5.377-.283-10.774-.236-16.127-.879-2.13-.286-4.263-.55-6.369-.969-3.884-.653-7.663-1.792-11.533-2.506-5.507-1.014-10.935-2.374-16.367-3.718-10.637-2.554-21.212-5.401-31.572-8.912a441.81 441.81 0 0 1-11.537-4.088c-2.405-.92-5.191-.907-7.533.199-2.455 1.072-4.41 2.966-6.133 4.969-2.254 2.93-3.755 6.6-3.416 10.35.066 3.384 2.351 6.085 4.295 8.644 3.262 4.204 7.364 7.632 11.025 11.47 2.165 1.978 4.222 4.082 6.53 5.9 7.523 5.967 14.97 12.127 23.356 16.867 4.747 2.708 9.49 5.435 14.437 7.77 4.776 2.282 9.766 4.099 14.861 5.529 6.43 1.907 13.044 3.042 19.582 4.482 2.821.643 5.818 1.076 8.649.246 1.396-.337 2.568-1.245 3.965-1.578 5.636-1.402 11.198-3.063 16.78-4.658 3.795-1.178 7.715-2.106 11.71-2.059 4.537.344 9.149-.003 13.533-1.246 1.437-.402 2.938-.739 4.433-.506 1.344.187 2.732.247 4.018.715 1.51.619 2.029 2.465 1.797 3.955-.424 2.048-1.915 3.72-3.65 4.803-1.329.864-2.95.975-4.45 1.353-5.403 1.233-10.794 2.94-15.498 5.944-1.62 1.056-3.52 1.73-5.47 1.693-6.7-.132-13.31 1.455-19.585 3.707-1.603.603-3.341.546-5.027.52-3.797.008-7.59-.011-11.387 0-1.958-.035-3.84.852-5.805.545-1.024-.125-1.734-1.006-2.707-1.252-1.146.053-2.21.663-3.379.568-6.175-.07-12.348-.047-18.52-.127-2.036.09-4.056-.218-6.085-.313-6.258-.34-12.527-1.018-18.613-2.566-10.267-2.756-19.939-7.302-29.369-12.145-9.23-4.794-17.982-10.44-26.604-16.24-4.393-3.032-8.696-6.235-12.574-9.912-1.665-1.688-3.46-3.268-4.88-5.176-2.707-3.508-4.486-7.713-5.196-12.082-.65-3.328-.376-6.733-.638-10.096-.3-11.662 1.01-23.286 2.498-34.832.584-4.358 1.504-8.729 3.36-12.74 2.335-4.817 5.31-9.342 8.927-13.295 1.386-1.529 2.75-3.27 4.761-3.99 1.153-.436 2.407-.105 3.59-.344.791-.48.979-1.467 1.149-2.306.759-4.561 1.282-9.178 2.476-13.654 1.576-6.173 4.834-11.762 8.494-16.916 1.931-2.622 3.993-5.156 6.266-7.493 1.288-1.529 2.743-2.902 4.24-4.222 6.307-5.918 14.16-10.437 22.775-11.824v-.002c2.892-.428 5.802-.74 8.705-1.09a65.75 65.75 0 0 1 4.1-.135zm67.975 4.544c2.421.024 4.841.259 7.226.68 3.566.52 6.826 2.127 10.031 3.69.966.564 2.113.296 3.16.503.197.907.505 2.033-.156 2.824-.8.719-1.933.816-2.94 1.031-4.976.833-9.463 3.251-14.194 4.871-.8.277-1.628.482-2.395.842a2.093 2.093 0 0 0 .082 1.037c.558.169 1.127-.021 1.678-.121 1.4-.355 2.841-.5 4.281-.58 3.443-.191 6.854-.789 10.307-.842 4.533-.085 9.08-.053 13.584.502 3.24.28 6.46.753 9.68 1.22.728.136 1.527.289 2.072.839.63.747.601 2.242-.464 2.58-1.157.392-2.409.333-3.58.656-9.619 2.489-19.692 3.402-28.907 7.318-1.326.62-2.816.14-3.953-.64-2.487-1.71-5.169-3.108-7.709-4.735-5.654-3.485-11.367-6.949-17.553-9.418-1.667-.677-3.502-1.065-4.931-2.213-.815-.614-1.175-1.808-.715-2.74.236-.566.845-.787 1.355-1.04 5.459-2.27 10.947-4.656 16.807-5.677h.002a39.23 39.23 0 0 1 7.233-.588zm43.615 30.533c5.54.055 11.08.523 16.459 1.914 3.288.895 6.527 2.04 9.533 3.66 2.934 1.613 5.18 4.384 6.172 7.584 1.059 3.402.94 7.03.81 10.553-.148 2.216-.483 4.426-1.136 6.556-.474 1.503-1.017 3.032-2.03 4.27-1.572 1.984-3.865 3.21-6.125 4.244-3.882 1.699-8.205 1.94-12.38 1.69-7.444.072-14.91-.419-22.2-1.993-5.73-1.238-11.543-2.885-16.406-6.285-1.627-1.182-3.325-2.45-4.214-4.312-.982-1.895-.917-4.075-1.14-6.14-.28-2.821-.66-5.634-1.134-8.43-.339-1.792-.812-3.692-.174-5.475.608-1.84 2.356-2.997 4.121-3.574 7.834-2.606 16.074-3.876 24.311-4.198l.002-.002c1.84-.055 3.685-.08 5.532-.062zM128.8 45.747a13.78 13.78 0 0 0-3.637.258c-3.664.815-7.086 2.736-9.71 5.422-3.319 3.383-4.885 8.207-4.84 12.89.01 4.145 2.057 8.27 5.48 10.644 2.308 1.722 5.278 2.398 8.115 1.996 3.88-.564 7.888-1.3 11.271-3.397a11.188 11.188 0 0 0 4.98-6.633c.782-2.563.557-5.264.585-7.902-.004-2.25-.404-4.537-1.43-6.556-1.411-2.876-4.134-4.921-7.11-5.97-.033-.012-.097-.033-.128-.046a13.78 13.78 0 0 0-3.577-.705zm71.01.072a13.03 13.03 0 0 0-2.594.319v-.002c-1.564.376-3.133.932-4.379 1.982-3.098 2.617-5.32 6.262-6.178 10.229-.749 2.913-.586 6.116.745 8.838 1.317 2.768 3.761 4.94 6.603 6.055 1.587.624 3.324.482 4.988.355 1.863.111 3.684.93 5.57.514 2.797-.404 4.683-2.853 5.805-5.258.598-1.505 1.53-2.86 1.944-4.44.754-2.087 1.858-4.335 1.056-6.582-1.304-3.614-3.625-6.792-6.285-9.53-1.966-1.78-4.64-2.535-7.275-2.48zm-70.938 12.62c1.452.035 2.899.693 4.078 1.501.883.643 1.922 1.746 1.412 2.924-.693 1.288-1.759 2.33-2.799 3.344-.764.688-1.533 1.435-2.498 1.832-1.06.27-2.129-.345-2.783-1.149-1.066-1.289-1.477-3.027-1.365-4.67.147-1.51 1.039-3.046 2.51-3.593a4.574 4.574 0 0 1 1.445-.19zm74.389 1.528a8.11 8.11 0 0 1 1.996.436c2.019.714 2.368 4.078.394 5.049-1.63.857-3.539.735-5.322.701-.829-.011-1.729-.491-1.879-1.37-.537-1.973 1.01-3.91 2.793-4.573.65-.233 1.336-.295 2.018-.242zm-158.85 43.025c-.98.108-1.628.93-2.334 1.526-2.755 2.432-4.73 5.569-6.754 8.596-.463.598-.497 1.415-.201 2.097a63.703 63.703 0 0 1 .588.143c.547-.318.974-.791 1.414-1.238 2.815-2.897 5.247-6.153 7.355-9.592a1.22 1.22 0 0 0-.068-1.531zm17.752 20.62c-.771-.01-1.575.191-1.893.949h.002c-.435 1.71-.356 3.734.824 5.152 3.024 3.792 6.98 6.694 10.953 9.416a295.811 295.811 0 0 0 29.598 17.219c9.323 4.775 19.424 7.81 29.621 10.066 3.926.865 7.863 1.823 11.887 2.09 4.845.365 9.704.269 14.56.303 3.526-.008 7.053.016 10.583-.008 6.035-.23 12.047-.97 17.98-2.106 6.672-1.278 13.423-2.742 19.495-5.902 1.91-.952 3.938-2.043 5.004-3.985.884-1.768.309-3.967-1.025-5.345-4.334-4.615-9.357-8.494-14.197-12.547-.407-.296-.68-.735-.59-1.248.696-.518 1.622-.314 2.432-.362 2.704.101 5.418-.142 8.111.147 1.749.138 3.38 1.106 5.166.818-.32-.654-.945-1.207-.85-1.99-.174-1.434 1.113-2.494 2.301-3.002 3.244-1.723 6.903-2.7 9.83-4.98.404-.289.908-.515 1.112-.999-1.728.177-3.393.686-4.993 1.336a527.82 527.82 0 0 0-12.756 4.207c-4.535 1.622-9.366 2.061-14.035 3.156-3.61.76-7.282 1.16-10.92 1.762-6.538 1.064-13.099 2.173-19.738 2.293-8.292.016-16.583.012-24.873-.068-3.024-.247-6.067-.225-9.08-.627-5.268-.402-10.48-1.296-15.637-2.426-11.964-2.503-23.885-5.409-35.389-9.582-4.18-1.434-8.379-2.9-12.742-3.672a5.06 5.06 0 0 0-.74-.066zm3.896 4.365c1.153-.055 2.319.134 3.428.441a339.15 339.15 0 0 1 12.596 3.545c8.541 2.825 17.283 5.018 26.109 6.73 10.433 2.164 21.044 3.365 31.672 4.002 2.767.262 5.552.078 8.328.133 2.928-.138 5.818.45 8.733.582 3.388.37 6.824.837 9.988 2.17 1.51.617 2.799 1.887 3.135 3.522.328 1.82.704 3.777-.03 5.554-.55 1.678-2.055 2.745-3.41 3.75-3.204 2.212-7.092 3.537-11.008 3.368-3.935.074-7.69-1.29-11.23-2.864-6.96-2.993-13.885-6.067-20.865-9.017-4.493-1.844-8.972-3.84-13.764-4.774-2.302-.567-4.684-.727-7.047-.611-1.285.077-2.635-.111-3.855.395-1.241.508-2.362 1.31-3.688 1.607-2.815.556-5.772.08-8.312-1.24-7.062-3.791-13.951-7.927-20.441-12.646-1.064-.783-2.47-1.532-2.69-2.97-.186-.772.505-1.388 1.201-1.536h.004a7.638 7.638 0 0 1 1.147-.14zm121.41 12.01a26.665 26.665 0 0 1 2.514.039c1.298.11 2.49.706 3.557 1.427 3.85 2.593 7.549 5.476 10.652 8.948 1.098 1.27 2.4 2.63 2.482 4.406.156 1.683-1.058 3.144-2.455 3.914-1.503.818-3.175 1.246-4.773 1.828-1.228.355-2.4.915-3.663 1.125l-.054.235-.27.097-.197-.138c-.673.304-1.397.525-2.133.597l-.056.233-.268.097-.195-.142c-6.146 1.873-12.492 3.032-18.838 3.963-1.472.209-2.933.701-4.43.52-1.662-.033-3.41.215-4.977-.475l-.379-.493c3.135-2.876 6.79-5.22 9.592-8.459.844-1.034 1.708-2.083 2.258-3.31.426-.924.236-2.024-.346-2.834-1.447-2.146-2.876-4.315-4.525-6.315-.367-.482-.834-1.088-.484-1.71.454-.574 1.146-.891 1.802-1.18 2.442-1.022 5.125-1.093 7.7-1.543h.001c2.48-.377 4.977-.756 7.485-.83zm-82.943 8.923c2.681-.11 5.383.34 7.907 1.225l.193-.144.27.09.066.23c2.993.705 5.893 1.79 8.758 2.906 2.287.942 4.597 1.845 6.796 2.988 3.71 2.34 7.627 4.34 11.373 6.625.73.333.64 1.341.01 1.725-.678.111-1.36-.107-2.035-.14-2.384-.19-4.796-.371-7.113-.98l-.186.157-.277-.072-.08-.225c-.627-.002-1.254-.153-1.834-.38l-.191.148-.272-.088-.068-.23c-1.252-.107-2.435-.59-3.647-.885-7.753-2.321-15.564-4.668-22.766-8.428-.992-.588-2.31-.863-2.918-1.924-.355-.844.476-1.583 1.24-1.742 1.575-.362 3.147-.821 4.774-.855z"/></svg>