<svg xmlns="http://www.w3.org/2000/svg" viewBox="0 0 234.45 202.16"><path fill="#826608" d="M66.226 129.43c1.516-.304 3.096-.108 4.575.302a339.37 339.37 0 0 1 12.597 3.542c8.54 2.826 17.283 5.02 26.109 6.731 10.433 2.165 21.045 3.366 31.673 4.004 2.767.261 5.55.076 8.326.132 2.929-.138 5.818.45 8.734.582 3.387.37 6.823.836 9.988 2.17 1.51.616 2.8 1.886 3.135 3.521.328 1.82.704 3.778-.029 5.556-.55 1.678-2.056 2.744-3.41 3.75-3.205 2.211-7.091 3.534-11.007 3.365-3.935.074-7.692-1.289-11.232-2.863-6.962-2.992-13.885-6.067-20.865-9.017-4.493-1.844-8.972-3.839-13.764-4.773-2.302-.566-4.683-.728-7.046-.611-1.286.077-2.636-.111-3.855.394-1.241.508-2.363 1.312-3.689 1.609-2.815.555-5.773.08-8.313-1.241-7.062-3.792-13.95-7.927-20.442-12.647-1.063-.783-2.468-1.532-2.688-2.969-.185-.772.505-1.389 1.201-1.537z"/><path fill="#d3a50d" d="M56.016 111.56c2.482-.458 5.046-.103 7.416.71 7.83 2.573 15.552 5.479 23.482 7.738 6.689 1.942 13.404 3.837 20.246 5.16 6.038 1.153 12.054 2.407 18.082 3.611 3.53.68 7.033 1.609 10.636 1.778 2.517.138 4.967.78 7.47 1.032 4.333.44 8.686.667 13.04.651 2.47.016 4.94-.13 7.409-.016 3.339-.003 6.691.13 10.02-.222 2.4-.236 4.802-.442 7.194-.765 5.175-.72 10.385-1.283 15.48-2.476 4.475-.998 8.862-2.334 13.225-3.728 4.934-1.657 9.668-3.959 13.904-6.999.936-.65 1.772-1.444 2.754-2.032.804-.669 2.138.22 2.003 1.21.085 2.653-.294 5.297-.595 7.926-.376 1.646-1.736 3.107-3.398 3.477-1.727.177-3.392.685-4.992 1.336a528.985 528.985 0 0 0-12.756 4.207c-4.535 1.622-9.366 2.061-14.036 3.157-3.61.759-7.282 1.159-10.92 1.762-6.537 1.063-13.1 2.172-19.737 2.291-8.292.016-16.584.01-24.873-.069-3.024-.246-6.067-.225-9.08-.627-5.269-.402-10.48-1.294-15.638-2.423-11.964-2.503-23.884-5.411-35.388-9.584-4.18-1.434-8.38-2.9-12.742-3.672-.923-.148-2.209-.127-2.632.884-.434 1.712-.355 3.733.825 5.151 3.024 3.792 6.98 6.694 10.954 9.417 9.528 6.297 19.405 12.065 29.596 17.219 9.321 4.775 19.426 7.807 29.623 10.065 3.927.865 7.861 1.823 11.885 2.09 4.845.365 9.705.27 14.56.304 3.527-.008 7.054.016 10.583-.008 6.035-.23 12.046-.97 17.978-2.106 6.673-1.278 13.425-2.744 19.497-5.903 1.91-.952 3.937-2.042 5.003-3.984.884-1.768.31-3.967-1.023-5.345-4.334-4.614-9.359-8.493-14.198-12.547-.408-.296-.68-.736-.59-1.249.695-.518 1.621-.312 2.431-.36 2.704.1 5.419-.143 8.112.146 1.75.137 3.379 1.106 5.165.817.717.12 1.317.66 1.852 1.14 1.648 1.705 3.485 3.242 4.942 5.126.683.767 1.44 1.5 1.9 2.434-.436.17-.876.33-1.294.537.133 1.064.762 1.966 1.178 2.932 1.659 3.426 1.738 7.643-.08 11.023-1.99 3.839-5.246 7.061-9.215 8.818-4.024 1.82-8.472 2.329-12.82 2.752-4.153.175-8.355-.212-12.471.537-1.487.257-2.929.796-4.45.833-1.993.061-3.99-.119-5.972.112-3.23.362-6.395 1.13-9.62 1.51-1.879.217-3.752.514-5.58 1.011-4.705 1.148-9.166 3.165-13.938 4.062-2.937.404-5.932.22-8.845-.297-8.123-1.159-15.978-3.67-23.638-6.554-4.961-1.886-9.875-3.905-14.645-6.241-18.854-9.01-35.851-22.079-48.964-38.386-3.3-3.963-3.466-9.84-1.225-14.346 1.336-2.649 4.016-4.5 6.91-5.027z"/><path fill="#f7dd86" d="M181.3 142.13c3.307-.503 6.644-1.008 9.999-.791 1.299.111 2.492.706 3.558 1.429 3.85 2.593 7.549 5.474 10.652 8.945 1.098 1.27 2.4 2.633 2.482 4.408.156 1.683-1.058 3.143-2.455 3.913-1.503.818-3.175 1.247-4.773 1.829-1.228.354-2.4.915-3.662 1.124l-.521.193c-.673.305-1.397.527-2.133.598-.13.048-.392.14-.521.188-6.147 1.873-12.491 3.032-18.838 3.964-1.471.209-2.932.7-4.43.518-1.661-.031-3.41.217-4.976-.473-.095-.125-.283-.368-.379-.492 3.136-2.876 6.79-5.22 9.592-8.46.844-1.034 1.709-2.084 2.26-3.312.425-.923.235-2.024-.347-2.833-1.448-2.146-2.876-4.313-4.525-6.313-.368-.482-.836-1.09-.487-1.712.455-.574 1.149-.892 1.805-1.18 2.442-1.022 5.125-1.093 7.7-1.543zm-80.23 8.95c1.574-.362 3.146-.822 4.773-.856 2.68-.111 5.382.338 7.906 1.225l.529.177c2.992.704 5.892 1.789 8.758 2.905 2.286.942 4.598 1.844 6.797 2.987 3.71 2.34 7.625 4.34 11.372 6.625.73.334.64 1.342.01 1.726-.676.11-1.36-.106-2.034-.14-2.384-.189-4.797-.371-7.114-.98-.135-.037-.408-.106-.543-.14-.627-.003-1.254-.153-1.833-.38l-.532-.17c-1.252-.106-2.434-.59-3.646-.887-7.752-2.32-15.563-4.667-22.765-8.427-.992-.587-2.31-.862-2.919-1.923-.354-.844.477-1.582 1.241-1.741z"/><path fill="#f0bc12" d="M189.2 34.587c3.347-.183 6.689-.55 10.044-.566 3.792.034 7.578.391 11.329.918 4.649.661 9.305 1.942 13.29 4.495.778.535 1.704.783 2.643.818l.177.024.032.185c.103.915.453 1.775.622 2.677.077.54-.503.87-.947.985-1.149.299-2.254-.326-3.27-.778-7.038-3.506-15.034-4.556-22.818-4.427-3.09-.042-6.178.021-9.26.246-3.724.032-7.467.096-11.137.776-5.789 1.01-11.372 2.894-16.925 4.76-1.249.357-2.67.904-3.91.245-.49-.216-.852-.894-.437-1.346 1.122-1.4 2.887-2.006 4.461-2.739 8.207-3.69 17.097-5.953 26.106-6.273zM163.459 77.86c-.733-1.072.034-2.805 1.39-2.789 1.29.074 2.425.778 3.61 1.228 2.737 1.082 5.332 2.477 8.05 3.601 4.069 1.685 8.466 2.273 12.762 3.093 4.62.931 9.277 1.712 13.975 2.088 2.188.185 4.387.092 6.583.121 4.112.061 8.152-.868 12.113-1.88.8-.162 1.707-.448 2.463.015.495.738.217 1.656.082 2.458l-.15.196c-4.25 2.08-9.05 2.574-13.716 2.69-4.68-.224-9.346-.677-14.026-.902-6.66-.444-13.076-2.41-19.537-3.934-1.424-.315-2.842-.744-4.31-.725.1.799.939 1.042 1.55 1.378 4.627 2.257 9.76 3.035 14.69 4.358 4.16 1.037 8.337 2.037 12.377 3.482.645.228 1.5.73 1.317 1.543-.248 1.02-1.45 1.063-2.288 1.217-3.665.49-7.207 1.936-10.948 1.76-3.86-.212-7.35-2.17-10.37-4.451-3.73-2.852-7.484-5.705-10.773-9.07-1.71-1.733-3.57-3.379-4.845-5.477z"/><path fill="#f0bc12" d="M72.812 7.517c2.892-.428 5.802-.74 8.705-1.09 2.728-.177 5.469-.17 8.2-.034 9.757 1.071 19.242 4.151 27.997 8.54.241.72-.161 1.76-1.042 1.699-3.7.148-7.382.696-11.09.585-2.64-.016-5.294.23-7.855.886-2.54.614-5.167.654-7.763.794-8.175.436-16.46 2.238-23.535 6.509-2.33 1.315-4.39 3.045-6.651 4.466-.842.585-1.762 1.056-2.543 1.722l-.063.701c.526.011 1.055-.066 1.524-.317 4.103-1.982 8.157-4.064 12.27-6.02 2.967-1.447 6.226-2.1 9.444-2.714 6.506-1.484 13.237-1.844 19.88-1.347 2.586.146 5.178-.058 7.758.238 9.885.328 19.883 1.599 29.128 5.276.257.106.487.254.693.442.032.315.035.63.005.945-.344.156-.709.275-1.087.29-3.257.294-6.506.702-9.774.837-1.59-.04-3.175.135-4.76.235-8.34.12-16.662 1.273-24.751 3.313-7.922 2.013-15.081 6.067-22.595 9.152-.432.19-.84.434-1.167.77.468.709 1.378.542 2.09.41 1.646-.331 3.307-.63 4.897-1.186 4.943-1.807 9.742-3.992 14.753-5.614a101.093 101.093 0 0 1 17.203-3.744c6.001-.608 11.988-1.606 18.034-1.519 5.38.358 10.763.96 16 2.27 1.148.31 2.32.59 3.391 1.122 1.426.802 2.628 1.94 3.877 2.987.574.397.883 1.331.25 1.818-.33.466-.893.199-1.309.045-2.664-1.111-5.572-1.556-8.445-1.59-1.649.032-3.286-.365-4.932-.225-.416.28-.508.815-.757 1.22-1.042.045-2.087-.138-3.006-.651-.246-.524-.336-1.466-1.113-1.39-2.054-.07-4.11.025-6.163.11-2.696.248-5.405.087-8.11.134-5.83-.1-11.715.516-17.295 2.257-5.85 1.776-11.422 4.316-17.15 6.422-4.55 1.717-9.147 3.41-13.941 4.318-1.468.312-2.852.936-4.17 1.643-1.018.542-1.913 1.452-2.14 2.616-.347 1.916.526 4.054 2.22 5.057 1.195.566 2.537.727 3.743 1.264 3.908 1.485 7.046 4.347 10.044 7.168 4.276 4.201 8.361 8.707 13.473 11.927 4.146 2.54 8.7 4.381 13.383 5.66 4.644 1.256 9.401 2.203 14.213 2.447 8.324-.104 16.79.51 24.953-1.503 1.22-.3 2.517-.553 3.76-.225.572.114.797.712.955 1.204-1.632 2.45-4.746 2.889-7.302 3.852-6.046 2.574-12.777 3.21-19.272 2.585-10.12-.942-20.143-3.5-29.26-8.043-6.93-3.442-13.436-7.872-18.783-13.494-.606-.625-1.16-1.32-1.89-1.802-.42-.35-.973.008-1.293.323-.05.288-.016.563.103.825 3.39 4.945 7.938 9.03 13.07 12.105a77.447 77.447 0 0 0 9.615 4.927c4.59 2.074 9.147 4.36 14.094 5.471 3.622.836 7.231 2.077 11 1.913.983-.074 1.872.379 2.745.765.72.333 1.532.243 2.302.365l-.074.701c-.746.744-1.79 1.09-2.82 1.199-5.453.566-10.946 1.01-16.428.666-8.226-.746-16.216-2.981-24.156-5.15-3.27-1.001-6.207-2.872-9.536-3.71-.918-.154-1.757-1.011-2.707-.707-.142.516-.306 1.257.228 1.606 1.651 1.278 3.307 2.57 5.138 3.583 4.197 2.315 8.832 3.654 13.457 4.8 6.21 1.489 12.55 2.33 18.886 3.063 6.12.76 12.348.082 18.288-1.51 6.639-1.818 13.211-4.194 19.005-7.975 1.813-1.18 3.662-2.31 5.395-3.607 2.331-1.725 3.905-4.278 4.969-6.934.333-.754.71-1.662 1.58-1.91 1.378-.014 2.468.994 3.556 1.717 8.318 5.765 15.015 13.51 21.003 21.593 1.24 1.65 2.317 3.479 3.968 4.773.336.32.829.235 1.252.198.145-.254.333-.569.143-.854-.926-1.813-2.04-3.646-2.207-5.723-.14-.86.683-1.329 1.37-1.559 7.303-2.519 15.09-2.92 22.737-3.33a6.411 6.411 0 0 1 4.302 1.388c2.892 2.313 4.741 5.586 6.636 8.697.817 1.553 1.637 3.408.994 5.165-.497 1.466-1.733 2.498-2.902 3.437a37.759 37.759 0 0 1-8.848 4.916c-5.13 2.066-10.57 3.154-15.93 4.426-6.078 1.37-12.257 2.268-18.469 2.739-3.394.434-6.82.325-10.229.579-3.617.045-7.233.008-10.85.019-5.377-.284-10.775-.236-16.127-.879-2.13-.286-4.265-.55-6.371-.968-3.884-.654-7.662-1.791-11.533-2.506-5.506-1.013-10.935-2.376-16.367-3.72-10.636-2.553-21.212-5.4-31.573-8.911a441.82 441.82 0 0 1-11.536-4.088c-2.405-.918-5.191-.907-7.533.199-2.455 1.071-4.41 2.966-6.133 4.968-2.254 2.932-3.754 6.602-3.415 10.35.066 3.384 2.349 6.086 4.294 8.644 3.262 4.205 7.363 7.634 11.025 11.47 2.164 1.98 4.223 4.083 6.53 5.9 7.524 5.967 14.97 12.127 23.357 16.866 4.746 2.709 9.49 5.437 14.438 7.77 4.775 2.284 9.765 4.101 14.862 5.53 6.429 1.908 13.044 3.043 19.582 4.482 2.82.643 5.815 1.077 8.646.246 1.397-.336 2.57-1.243 3.966-1.577 5.636-1.402 11.197-3.064 16.78-4.659 3.794-1.177 7.716-2.106 11.71-2.058 4.538.344 9.15-.003 13.533-1.247 1.437-.402 2.94-.738 4.435-.505 1.344.188 2.73.246 4.016.714 1.51.62 2.03 2.466 1.797 3.956-.424 2.048-1.913 3.72-3.649 4.802-1.328.865-2.95.976-4.45 1.355-5.403 1.233-10.795 2.94-15.5 5.942-1.618 1.056-3.518 1.73-5.468 1.694-6.7-.133-13.311 1.455-19.584 3.706-1.604.604-3.342.545-5.027.519-3.797.008-7.591-.01-11.388 0-1.958-.034-3.842.852-5.805.545-1.024-.124-1.733-1.005-2.707-1.252-1.146.053-2.212.665-3.379.57-6.175-.07-12.348-.048-18.52-.128-2.035.09-4.057-.217-6.086-.312-6.257-.341-12.525-1.018-18.611-2.566-10.268-2.757-19.942-7.303-29.371-12.144-9.231-4.795-17.981-10.44-26.604-16.24-4.392-3.032-8.694-6.237-12.573-9.914-1.664-1.688-3.46-3.268-4.882-5.175-2.706-3.509-4.484-7.713-5.193-12.081-.651-3.329-.379-6.734-.64-10.096-.3-11.663 1.01-23.286 2.497-34.832.585-4.358 1.505-8.73 3.363-12.74 2.333-4.819 5.307-9.343 8.924-13.295 1.387-1.53 2.752-3.27 4.763-3.99 1.153-.437 2.407-.106 3.59-.344.791-.482.98-1.469 1.148-2.308.76-4.56 1.284-9.178 2.477-13.655 1.577-6.172 4.834-11.76 8.493-16.915 1.932-2.622 3.993-5.156 6.265-7.493 1.289-1.529 2.744-2.902 4.242-4.222 6.307-5.919 14.16-10.438 22.775-11.824m-29.416 98.314c-2.755 2.431-4.731 5.566-6.755 8.593-.463.598-.498 1.416-.201 2.098l.587.143c.548-.317.976-.79 1.416-1.238 2.815-2.897 5.246-6.154 7.355-9.594a1.22 1.22 0 0 0-.069-1.529c-.979.109-1.627.931-2.333 1.527zm102.96-94.41c4.778-.846 9.689-.748 14.459.093 3.566.521 6.826 2.127 10.033 3.691.965.564 2.111.296 3.159.503.196.907.505 2.032-.156 2.823-.8.72-1.934.818-2.94 1.032-4.977.833-9.464 3.252-14.195 4.87-.799.279-1.627.482-2.394.842-.067.347-.027.704.082 1.037.558.17 1.127-.02 1.677-.121 1.4-.355 2.842-.5 4.281-.58 3.442-.19 6.853-.788 10.306-.841 4.532-.085 9.08-.053 13.584.503 3.241.28 6.461.751 9.681 1.22.728.134 1.527.288 2.072.838.63.746.6 2.241-.466 2.58-1.156.391-2.408.333-3.58.656-9.617 2.49-19.69 3.402-28.906 7.318-1.325.62-2.815.14-3.953-.64-2.487-1.71-5.17-3.109-7.71-4.736-5.654-3.485-11.366-6.948-17.552-9.416-1.666-.678-3.503-1.067-4.931-2.215-.815-.614-1.175-1.807-.715-2.738.236-.567.844-.789 1.355-1.043 5.458-2.27 10.948-4.657 16.809-5.675z"/><path fill="#413204" d="M126.48 47.316a13.78 13.78 0 0 1 7.213.447c.031.013.097.035.13.048 2.976 1.048 5.698 3.093 7.109 5.969 1.026 2.019 1.426 4.305 1.43 6.556-.028 2.638.197 5.34-.584 7.903a11.188 11.188 0 0 1-4.982 6.633c-3.384 2.096-7.39 2.831-11.27 3.395-2.837.402-5.808-.273-8.116-1.995-3.423-2.373-5.469-6.5-5.48-10.644-.044-4.683 1.522-9.507 4.84-12.89 2.625-2.686 6.046-4.606 9.71-5.421m2.265 12.623c-1.471.547-2.363 2.082-2.51 3.593-.112 1.643.298 3.381 1.364 4.67.654.804 1.723 1.418 2.784 1.148.965-.397 1.733-1.143 2.497-1.831 1.04-1.013 2.107-2.056 2.8-3.344.51-1.178-.53-2.281-1.413-2.924-1.572-1.077-3.62-1.889-5.522-1.312zm69.789-12.491c3.366-.762 7.247-.212 9.869 2.161 2.66 2.739 4.98 5.916 6.284 9.53.802 2.247-.302 4.496-1.056 6.583-.413 1.58-1.346 2.935-1.944 4.44-1.122 2.405-3.009 4.853-5.805 5.257-1.887.416-3.707-.402-5.57-.513-1.664.127-3.4.267-4.987-.357-2.842-1.114-5.287-3.286-6.604-6.054-1.331-2.722-1.493-5.924-.744-8.837.857-3.966 3.08-7.612 6.178-10.229 1.246-1.05 2.815-1.606 4.379-1.982m4.027 14.073c-1.783.664-3.331 2.601-2.794 4.575.15.878 1.05 1.357 1.879 1.368 1.783.034 3.693.156 5.323-.701 1.974-.971 1.625-4.334-.394-5.048-1.273-.437-2.715-.66-4.014-.194zm-159.17 44.31c.706-.595 1.355-1.418 2.334-1.526a1.22 1.22 0 0 1 .068 1.53c-2.108 3.439-4.54 6.696-7.355 9.593-.44.447-.868.92-1.415 1.238a63.703 63.703 0 0 0-.588-.143c-.296-.682-.262-1.5.201-2.098 2.024-3.027 4-6.162 6.755-8.594zm18.193 20.042c.423-1.01 1.71-1.032 2.633-.883 4.363.772 8.562 2.238 12.742 3.672 11.504 4.173 23.424 7.08 35.388 9.583 5.156 1.13 10.369 2.022 15.637 2.424 3.013.402 6.056.38 9.08.627 8.29.08 16.581.085 24.873.069 6.639-.12 13.2-1.228 19.738-2.292 3.638-.603 7.31-1.002 10.92-1.762 4.669-1.095 9.5-1.534 14.035-3.156a527.822 527.822 0 0 1 12.756-4.207c1.6-.65 3.265-1.159 4.993-1.336-.204.484-.707.709-1.111.997-2.927 2.281-6.586 3.257-9.83 4.98-1.188.508-2.476 1.569-2.302 3.003-.095.783.53 1.336.85 1.99-1.786.288-3.416-.68-5.165-.818-2.693-.289-5.408-.045-8.112-.146-.81.048-1.736-.158-2.432.36-.09.513.183.953.59 1.249 4.84 4.053 9.864 7.932 14.198 12.547 1.334 1.378 1.908 3.577 1.024 5.345-1.066 1.942-3.093 3.032-5.003 3.984-6.072 3.16-12.824 4.625-19.497 5.903-5.932 1.135-11.943 1.876-17.978 2.106-3.53.024-7.056 0-10.583.008-4.855-.034-9.715.061-14.56-.304-4.024-.267-7.959-1.225-11.885-2.09-10.197-2.257-20.3-5.29-29.623-10.065-10.192-5.155-20.069-10.922-29.596-17.22-3.974-2.722-7.93-5.624-10.954-9.416-1.18-1.418-1.26-3.44-.825-5.151m4.638 3.556c-.696.148-1.387.764-1.201 1.537.22 1.437 1.624 2.185 2.688 2.968 6.49 4.72 13.38 8.856 20.442 12.647 2.54 1.32 5.498 1.797 8.313 1.241 1.326-.296 2.447-1.1 3.688-1.608 1.22-.506 2.57-.318 3.855-.395 2.363-.116 4.744.045 7.046.612 4.792.934 9.271 2.929 13.764 4.773 6.98 2.95 13.904 6.024 20.865 9.017 3.54 1.574 7.297 2.937 11.232 2.863 3.916.169 7.803-1.154 11.007-3.366 1.355-1.005 2.86-2.072 3.41-3.75.734-1.777.358-3.735.03-5.555-.336-1.635-1.625-2.905-3.136-3.522-3.164-1.333-6.6-1.8-9.988-2.17-2.915-.132-5.805-.72-8.733-.582-2.776-.055-5.56.13-8.327-.132-10.628-.637-21.24-1.839-31.673-4.003-8.826-1.712-17.568-3.905-26.109-6.73A339.152 339.152 0 0 0 70.8 129.73c-1.479-.41-3.058-.606-4.574-.301m115.07 12.7c-2.575.45-5.258.52-7.7 1.542-.656.289-1.35.606-1.804 1.18-.35.622.119 1.23.486 1.712 1.649 2 3.078 4.167 4.525 6.313.582.81.772 1.91.346 2.834-.55 1.227-1.415 2.278-2.259 3.312-2.802 3.239-6.456 5.583-9.591 8.459l.378.492c1.566.69 3.315.442 4.977.474 1.497.182 2.958-.31 4.43-.519 6.346-.931 12.691-2.09 18.837-3.963l.196.143.267-.098.058-.233c.736-.072 1.46-.294 2.133-.598l.196.14.27-.098.055-.235c1.262-.21 2.434-.77 3.662-1.125 1.598-.582 3.27-1.01 4.773-1.828 1.397-.77 2.611-2.23 2.455-3.913-.082-1.776-1.384-3.138-2.482-4.408-3.103-3.472-6.802-6.353-10.652-8.946-1.066-.722-2.26-1.318-3.558-1.429-3.355-.217-6.691.289-9.999.791m-80.23 8.951c-.764.159-1.595.897-1.24 1.741.608 1.061 1.926 1.336 2.918 1.924 7.202 3.76 15.012 6.106 22.765 8.427 1.212.296 2.394.78 3.646.886l.069.23.272.088.19-.149c.58.228 1.207.379 1.834.381l.08.225.277.072.186-.156c2.317.608 4.73.79 7.114.979.675.034 1.357.251 2.035.14.63-.384.72-1.392-.01-1.725-3.747-2.286-7.663-4.286-11.373-6.625-2.199-1.143-4.51-2.046-6.797-2.988-2.865-1.116-5.765-2.2-8.758-2.905l-.066-.232-.27-.09-.193.145c-2.524-.886-5.225-1.336-7.906-1.225-1.627.034-3.198.495-4.773.857z"/><path fill="#413204" d="M80.99 1.612c1.249.092 2.44-.394 3.688-.283 1.776.084 3.588-.193 5.332.24 7.725.059 15.132 3.276 21.254 7.853 2.646 1.905 5.514 3.464 8.236 5.25 1.019.772 2.32 1.042 3.559 1.22 3.302.079 6.014-2.075 8.977-3.192 5.633-2.643 11.82-3.992 17.986-4.492 1.947.005 3.895.01 5.845 0 5.32.248 10.544 1.974 15.087 4.752 2.823 1.796 5.942 3.037 8.892 4.6 2.829 1.152 5.472 2.715 8.29 3.89 1.913.91 3.76 1.971 5.754 2.712 7.337 2.598 14.518 5.652 21.407 9.274 2.588 1.294 5.18 2.577 7.758 3.892 1.257.825 2.606 1.643 3.455 2.923-.939-.034-1.865-.283-2.643-.817-3.984-2.553-8.641-3.834-13.29-4.495-3.752-.527-7.538-.884-11.329-.919-3.355.016-6.696.384-10.044.567-9.009.32-17.899 2.582-26.106 6.273-1.574.733-3.339 1.339-4.46 2.738-.416.453-.054 1.13.436 1.347 1.24.659 2.662.111 3.91-.246 5.554-1.865 11.136-3.75 16.925-4.76 3.67-.68 7.414-.743 11.136-.775 3.083-.225 6.17-.289 9.26-.246 7.785-.13 15.78.92 22.819 4.426 1.016.453 2.122 1.077 3.27.778.445-.114 1.024-.444.947-.984-.17-.902-.518-1.762-.622-2.678 1.583 1.458 2.75 3.4 3.326 5.488 1.154 3.942 1.667 8.043 2.172 12.107.3 3.257 1.114 6.538.48 9.803-.82 3.783-2.89 7.101-4.504 10.573-.518 1.545-1.122 3.074-1.402 4.688-.117.69-.302 1.381-.63 2.008-.38.513-1.074.62-1.67.667.136-.802.413-1.72-.081-2.458-.757-.463-1.665-.177-2.464-.016-3.96 1.013-8 1.942-12.113 1.881-2.196-.029-4.394.064-6.582-.121-4.7-.376-9.356-1.157-13.975-2.088-4.297-.82-8.695-1.408-12.764-3.093-2.718-1.125-5.313-2.519-8.049-3.601-1.185-.45-2.32-1.154-3.612-1.228-1.354-.016-2.122 1.717-1.389 2.789 1.276 2.098 3.136 3.744 4.845 5.477 3.289 3.365 7.043 6.218 10.774 9.07 3.019 2.28 6.509 4.238 10.369 4.45 3.741.177 7.284-1.27 10.948-1.76.838-.153 2.04-.195 2.288-1.217.183-.812-.672-1.315-1.317-1.542-4.04-1.445-8.218-2.445-12.377-3.482-4.93-1.323-10.062-2.1-14.69-4.358-.611-.336-1.45-.58-1.55-1.378 1.468-.019 2.886.41 4.31.725 6.46 1.524 12.876 3.49 19.536 3.934 4.68.225 9.345.678 14.026.902 4.668-.116 9.467-.61 13.716-2.69.08.338.167.68.23 1.024-.285.32-.603.621-.981.83-2.154 1.17-4.151 2.612-6.337 3.726-.936.56-1.955 1.047-2.625 1.944-.042.506-.185 1.104.164 1.538 2.02 2.992 4.258 5.828 6.263 8.829 1.347 1.738 2.487 3.648 4.046 5.217 1.04 1.286 1.725 2.81 2.735 4.12.678.854 1.154 1.844 1.79 2.73 1.126 1.538 1.317 3.58 1.018 5.406-.667 1.418-1.46 3.013-2.863 3.78.302-2.63.68-5.272.595-7.926.135-.99-1.198-1.879-2.003-1.21-.981.588-1.817 1.382-2.754 2.033-4.236 3.04-8.97 5.341-13.904 6.998-4.363 1.394-8.75 2.73-13.224 3.728-5.096 1.193-10.306 1.757-15.481 2.476-2.392.323-4.794.53-7.194.765-3.328.352-6.68.22-10.02.222-2.469-.114-4.94.032-7.408.016-4.355.016-8.708-.212-13.041-.65-2.503-.252-4.953-.895-7.47-1.033-3.603-.17-7.106-1.098-10.635-1.778-6.028-1.204-12.044-2.458-18.082-3.611-6.843-1.323-13.557-3.218-20.246-5.16-7.93-2.26-15.653-5.164-23.482-7.739-2.371-.812-4.935-1.167-7.417-.709-2.894.527-5.575 2.379-6.91 5.027-2.242 4.506-2.075 10.382 1.224 14.346 13.113 16.306 30.11 29.377 48.964 38.386 4.77 2.336 9.684 4.355 14.645 6.242 7.66 2.884 15.515 5.394 23.638 6.553 2.913.516 5.909.701 8.845.297 4.773-.897 9.234-2.913 13.938-4.062 1.829-.497 3.702-.793 5.58-1.01 3.226-.381 6.39-1.149 9.62-1.511 1.982-.23 3.98-.05 5.972-.111 1.522-.037 2.964-.577 4.45-.834 4.117-.749 8.319-.362 12.473-.537 4.347-.423 8.794-.931 12.819-2.752 3.968-1.756 7.225-4.979 9.215-8.818 1.818-3.379 1.738-7.596.08-11.023-.416-.966-1.046-1.868-1.178-2.932.418-.206.857-.368 1.294-.537.748 1.268 1.323 2.638 2.03 3.935.737 1.603 1.928 3.111 1.941 4.947.154 2.588-.839 5.133-2.344 7.2-.99.96-1.722 2.143-2.754 3.06-1.355 1.234-2.368 2.774-3.43 4.25-1.367 2.58-3.487 4.617-5.376 6.802-.981 1.302-2.341 2.265-3.265 3.62-1.352 1.463-2.815 2.82-4.193 4.26-1.34 1.841-3.59 2.76-5.74 3.26-5.902 1.42-11.63 3.447-17.387 5.36-2.826.897-5.567 2.098-8.496 2.627-.97.117-1.968-.05-2.913.257-1.98.19-3.98-.072-5.956.121-.955.3-1.955.151-2.931.241-1.76.307-3.548.519-5.24 1.12-1.423.502-2.878.925-4.36 1.195-1.148-.003-2.251.405-3.405.3-1.775-.085-3.582.195-5.323-.247-5.633-.066-11.271.005-16.904-.031-.542-.011-1.053-.241-1.593-.252-4.84-.034-9.684.035-14.52-.032-1.513-.476-3.117-.02-4.635-.394-8.314-.709-16.671-1.802-24.733-4.109-6.874-2.304-13.69-4.844-20.143-8.165a172.293 172.293 0 0 1-16.031-8.84c-4.223-2.637-8.234-5.614-12.578-8.05-1.866-1.599-3.93-2.94-5.781-4.546-2.038-1.585-4.12-3.106-6.157-4.691-1.3-1.03-2.84-1.702-4.09-2.794-3.57-3.342-6.557-7.218-9.595-11.036-1.608-2.276-2.894-4.871-3.172-7.676-.032-5.194.034-10.388-.03-15.58-.303-1.24-.378-2.557-.036-3.798.246-2.357-.22-4.77.304-7.099-.1-1.682.368-3.302.315-4.979.346-1.162.116-2.387.423-3.55.159-.81-.013-1.65.185-2.453.273-.937.043-1.93.313-2.866.455-4.114.61-8.337 1.992-12.293 2.053-6.733 6.13-12.629 10.586-17.992.49-.733 1.138-1.33 1.751-1.955 3.242-3.874 6.454-7.824 8.893-12.27 1.14-2.386 1.267-5.084 1.595-7.664.334-2.05 1.046-4.009 1.712-5.97 1.223-3.082 3.112-5.823 4.869-8.617.77-.931 1.238-2.074 2.087-2.944 1.524-2.236 3.26-4.316 4.924-6.448 1.297-1.768 2.98-3.197 4.503-4.76 1.157-.863 2.14-1.926 3.337-2.741 1.328-1.088 2.852-1.897 4.204-2.95 4.768-3.014 9.917-5.372 15.042-7.708 2.027-.79 3.955-1.857 6.077-2.394 2.07-.622 4.197-1.043 6.335-1.331M72.81 7.515c-8.615 1.387-16.468 5.906-22.775 11.824-1.497 1.32-2.953 2.694-4.241 4.223-2.273 2.337-4.334 4.871-6.265 7.493-3.66 5.154-6.917 10.742-8.493 16.915-1.194 4.477-1.718 9.094-2.477 13.655-.17.839-.357 1.826-1.148 2.307-1.183.239-2.437-.092-3.59.344-2.011.72-3.377 2.461-4.763 3.99-3.617 3.953-6.591 8.478-8.925 13.295-1.857 4.011-2.778 8.382-3.362 12.74-1.487 11.546-2.797 23.17-2.498 34.832.262 3.363-.01 6.768.64 10.096.71 4.369 2.487 8.573 5.194 12.081 1.42 1.908 3.217 3.488 4.882 5.176 3.878 3.677 8.18 6.881 12.573 9.913 8.622 5.8 17.373 11.446 26.604 16.24 9.43 4.842 19.103 9.388 29.37 12.144 6.086 1.548 12.354 2.226 18.612 2.567 2.029.095 4.05.402 6.085.312 6.173.08 12.345.058 18.52.127 1.168.095 2.234-.516 3.38-.569.973.246 1.682 1.127 2.706 1.252 1.964.307 3.847-.58 5.805-.545 3.797-.011 7.591.008 11.388 0 1.686.026 3.424.084 5.027-.519 6.274-2.252 12.885-3.839 19.584-3.707 1.95.037 3.85-.637 5.47-1.693 4.704-3.003 10.095-4.71 15.498-5.943 1.5-.378 3.122-.49 4.45-1.354 1.736-1.083 3.226-2.755 3.65-4.803.232-1.49-.287-3.336-1.797-3.955-1.286-.468-2.673-.527-4.017-.714-1.495-.233-2.997.103-4.434.505-4.384 1.243-8.996 1.59-13.533 1.246-3.995-.047-7.916.881-11.71 2.059-5.583 1.595-11.144 3.257-16.78 4.659-1.397.333-2.57 1.24-3.966 1.577-2.831.83-5.826.397-8.647-.246-6.538-1.44-13.152-2.575-19.582-4.482-5.096-1.43-10.086-3.247-14.862-5.53-4.947-2.334-9.691-5.062-14.438-7.77-8.387-4.74-15.833-10.899-23.357-16.866-2.307-1.818-4.365-3.921-6.53-5.9-3.661-3.837-7.763-7.266-11.025-11.47-1.944-2.559-4.228-5.26-4.294-8.644-.339-3.75 1.162-7.419 3.416-10.35 1.722-2.003 3.678-3.897 6.133-4.969 2.342-1.106 5.128-1.117 7.533-.198a441.81 441.81 0 0 0 11.536 4.087c10.36 3.511 20.936 6.358 31.573 8.912 5.432 1.344 10.86 2.706 16.367 3.72 3.87.714 7.649 1.852 11.533 2.505 2.106.418 4.24.683 6.37.969 5.353.643 10.75.595 16.127.878 3.617-.01 7.234.027 10.85-.018 3.409-.254 6.835-.146 10.23-.58 6.212-.47 12.39-1.368 18.468-2.738 5.36-1.273 10.8-2.36 15.93-4.427a37.76 37.76 0 0 0 8.849-4.916c1.169-.94 2.405-1.97 2.902-3.437.643-1.756-.177-3.611-.995-5.164-1.894-3.112-3.744-6.385-6.636-8.697a6.412 6.412 0 0 0-4.302-1.39c-7.646.41-15.433.813-22.736 3.332-.688.23-1.51.698-1.37 1.558.166 2.077 1.28 3.91 2.206 5.723.19.286.003.6-.142.855-.424.037-.916.121-1.252-.199-1.651-1.294-2.728-3.122-3.969-4.773-5.987-8.083-12.684-15.827-21.003-21.593-1.087-.722-2.177-1.73-3.556-1.717-.87.249-1.246 1.156-1.58 1.91-1.063 2.657-2.637 5.21-4.968 6.935-1.733 1.296-3.583 2.426-5.395 3.606-5.795 3.781-12.367 6.157-19.005 7.975-5.94 1.592-12.168 2.27-18.288 1.51-6.337-.732-12.676-1.574-18.886-3.063-4.625-1.146-9.26-2.485-13.457-4.8-1.831-1.013-3.487-2.304-5.138-3.582-.535-.35-.37-1.09-.228-1.606.95-.305 1.789.553 2.707.706 3.328.839 6.265 2.71 9.535 3.71 7.94 2.169 15.931 4.405 24.156 5.15 5.483.345 10.975-.1 16.428-.666 1.03-.108 2.075-.455 2.82-1.199l.075-.7c-.77-.122-1.582-.032-2.302-.366-.873-.386-1.762-.839-2.746-.764-3.768.164-7.377-1.077-11-1.913-4.947-1.112-9.503-3.398-14.093-5.472a77.46 77.46 0 0 1-9.615-4.926c-5.133-3.075-9.681-7.16-13.07-12.105a1.379 1.379 0 0 1-.104-.826c.32-.315.874-.672 1.294-.323.73.482 1.283 1.178 1.89 1.802 5.347 5.622 11.852 10.052 18.782 13.494 9.118 4.543 19.14 7.101 29.26 8.043 6.496.625 13.227-.01 19.272-2.585 2.556-.963 5.67-1.402 7.303-3.852-.159-.492-.384-1.09-.955-1.204-1.244-.328-2.54-.074-3.76.225-8.162 2.014-16.629 1.4-24.953 1.503-4.813-.243-9.57-1.19-14.213-2.447-4.683-1.278-9.237-3.12-13.383-5.66-5.112-3.22-9.197-7.726-13.473-11.927-2.998-2.82-6.136-5.683-10.044-7.167-1.206-.538-2.548-.699-3.744-1.265-1.693-1.003-2.566-3.14-2.22-5.056.228-1.165 1.122-2.075 2.14-2.617 1.318-.706 2.702-1.33 4.17-1.643 4.795-.908 9.39-2.6 13.942-4.318 5.728-2.106 11.3-4.646 17.15-6.422 5.58-1.74 11.464-2.357 17.296-2.256 2.704-.048 5.413.113 8.109-.135 2.053-.085 4.109-.18 6.162-.109.778-.077.868.865 1.114 1.39-10.044-1.213-20.204.372-29.956 2.81-6.175 1.468-12.078 3.923-17.674 6.892-4.664 2.447-9.837 3.958-15.097 4.296-1.153.104-2.519.175-3.278 1.188-.63 1.045-.384 2.514.524 3.329.976.984 2.394 1.206 3.635 1.685 3.05 1.159 5.734 3.138 8.014 5.448 2.194 2.138 4.049 4.604 6.316 6.673 4.048 3.894 8.758 7.128 13.912 9.377 4.765 2.148 9.925 3.138 14.978 4.35 5.054 1.06 10.208 1.994 15.393 1.703 3.466-.325 7.009-.246 10.382-1.233 3.958-1.143 8.11-2.336 11.237-5.16 3.937-3.576 6.472-8.656 6.916-13.961.418-4.551-.585-9.208-2.81-13.197-4.027-7.12-11.359-12.367-19.487-13.55.249-.404.342-.938.757-1.219 1.646-.14 3.284.257 4.932.225 2.873.034 5.781.479 8.445 1.59.416.154.98.42 1.31-.045.632-.487.323-1.42-.251-1.817-1.25-1.048-2.45-2.186-3.877-2.988-1.071-.531-2.243-.812-3.392-1.121-5.236-1.31-10.62-1.913-15.999-2.27-6.045-.088-12.033.91-18.034 1.518a101.1 101.1 0 0 0-17.203 3.744c-5.01 1.622-9.81 3.807-14.753 5.615-1.59.555-3.251.854-4.897 1.185-.712.132-1.622.299-2.09-.41.328-.336.735-.58 1.167-.77 7.514-3.085 14.674-7.139 22.595-9.152 8.088-2.04 16.412-3.194 24.752-3.313 1.584-.1 3.17-.275 4.76-.235 3.267-.135 6.516-.543 9.773-.836.379-.016.744-.135 1.088-.291a4.92 4.92 0 0 0-.005-.945 2.36 2.36 0 0 0-.694-.442c-9.244-3.677-19.243-4.947-29.128-5.276-2.58-.296-5.172-.092-7.757-.238-6.644-.497-13.375-.137-19.881 1.347-3.218.614-6.477 1.267-9.443 2.715-4.115 1.955-8.168 4.037-12.271 6.019-.469.251-.998.328-1.524.317l.063-.7c.78-.667 1.702-1.138 2.543-1.723 2.262-1.42 4.32-3.151 6.651-4.466 7.075-4.27 15.36-6.073 23.535-6.51 2.596-.14 5.223-.179 7.763-.793 2.562-.656 5.215-.902 7.856-.886 3.707.11 7.39-.437 11.089-.585.88.061 1.283-.979 1.042-1.699-8.755-4.389-18.24-7.469-27.998-8.54-2.73-.135-5.471-.143-8.199.034-2.903.35-5.813.662-8.705 1.09m73.546 3.905c-5.86 1.02-11.35 3.406-16.809 5.676-.51.254-1.119.476-1.355 1.042-.46.932-.1 2.125.715 2.739 1.429 1.148 3.265 1.537 4.932 2.214 6.186 2.469 11.898 5.932 17.552 9.417 2.54 1.627 5.223 3.027 7.71 4.736 1.137.78 2.627 1.26 3.953.64 9.215-3.916 19.288-4.829 28.906-7.318 1.172-.323 2.423-.265 3.58-.657 1.066-.338 1.095-1.833.465-2.58-.545-.55-1.344-.703-2.072-.838-3.22-.468-6.44-.94-9.68-1.22-4.504-.555-9.052-.587-13.585-.502-3.453.053-6.863.65-10.306.841-1.44.08-2.881.225-4.28.58-.551.1-1.12.29-1.678.121a2.093 2.093 0 0 1-.082-1.037c.767-.36 1.595-.564 2.394-.841 4.731-1.62 9.218-4.038 14.195-4.871 1.006-.215 2.14-.313 2.94-1.032.661-.791.352-1.916.156-2.823-1.048-.207-2.194.06-3.16-.503-3.206-1.564-6.466-3.17-10.032-3.691-4.77-.841-9.681-.94-14.46-.093m45.316 30.01c-8.237.322-16.476 1.592-24.31 4.198-1.765.577-3.514 1.736-4.122 3.575-.638 1.783-.165 3.683.174 5.474.474 2.797.855 5.61 1.135 8.432.222 2.064.156 4.244 1.138 6.139.889 1.862 2.588 3.13 4.215 4.312 4.863 3.4 10.676 5.046 16.407 6.284 7.289 1.574 14.756 2.064 22.199 1.992 4.175.25 8.498.011 12.38-1.688 2.26-1.034 4.553-2.26 6.125-4.244 1.013-1.238 1.556-2.767 2.03-4.27.653-2.13.989-4.34 1.137-6.556.13-3.522.249-7.152-.81-10.554-.992-3.2-3.238-5.97-6.172-7.583-3.006-1.62-6.245-2.765-9.533-3.66-7.17-1.854-14.634-2.071-21.992-1.852z"/><path fill="#fffffd" d="M128.74 59.939c1.902-.577 3.95.235 5.522 1.312.884.643 1.923 1.747 1.413 2.924-.694 1.288-1.76 2.33-2.8 3.344-.764.688-1.531 1.434-2.497 1.831-1.061.27-2.13-.344-2.784-1.148-1.066-1.289-1.476-3.027-1.365-4.67.148-1.51 1.04-3.046 2.511-3.593zm73.816 1.582c1.3-.465 2.741-.243 4.014.193 2.019.715 2.368 4.078.394 5.049-1.63.857-3.54.735-5.323.7-.829-.01-1.728-.489-1.88-1.367-.536-1.974 1.012-3.91 2.795-4.575z"/><path fill="#fffffd" d="M105.83 41.548c9.753-2.437 19.913-4.022 29.956-2.81.918.513 1.963.696 3.006.651 8.128 1.183 15.46 6.43 19.487 13.549 2.225 3.99 3.228 8.647 2.81 13.197-.445 5.305-2.98 10.385-6.917 13.962-3.127 2.823-7.278 4.016-11.237 5.16-3.373.986-6.916.907-10.382 1.232-5.185.291-10.34-.643-15.393-1.704-5.053-1.211-10.213-2.2-14.978-4.35-5.154-2.248-9.863-5.482-13.912-9.376-2.267-2.07-4.122-4.535-6.315-6.673-2.28-2.31-4.964-4.289-8.014-5.448-1.241-.479-2.66-.7-3.636-1.685-.907-.815-1.153-2.284-.524-3.329.76-1.013 2.125-1.084 3.279-1.188 5.26-.338 10.433-1.849 15.097-4.296 5.595-2.969 11.499-5.424 17.674-6.893m20.648 5.768c-3.665.815-7.086 2.736-9.71 5.421-3.319 3.384-4.885 8.208-4.84 12.89.01 4.144 2.056 8.271 5.48 10.644 2.307 1.723 5.278 2.398 8.114 1.995 3.882-.563 7.888-1.299 11.271-3.394a11.188 11.188 0 0 0 4.983-6.633c.78-2.564.555-5.265.584-7.903-.005-2.252-.405-4.538-1.431-6.557-1.41-2.876-4.133-4.92-7.11-5.969-.031-.013-.097-.034-.13-.047a13.78 13.78 0 0 0-7.212-.447zm65.193-5.884c7.358-.22 14.822-.003 21.992 1.852 3.288.894 6.527 2.04 9.532 3.66 2.935 1.613 5.181 4.383 6.173 7.582 1.058 3.403.94 7.033.81 10.554-.148 2.217-.484 4.427-1.138 6.557-.474 1.502-1.016 3.032-2.03 4.27-1.57 1.984-3.865 3.21-6.124 4.244-3.882 1.698-8.205 1.937-12.38 1.688-7.443.071-14.91-.418-22.2-1.992-5.73-1.239-11.543-2.884-16.406-6.284-1.628-1.183-3.326-2.45-4.215-4.313-.982-1.894-.916-4.075-1.138-6.138a123.8 123.8 0 0 0-1.135-8.433c-.339-1.79-.812-3.69-.175-5.474.609-1.839 2.358-2.997 4.123-3.574 7.834-2.606 16.073-3.876 24.31-4.2m6.86 6.017c-1.564.376-3.133.932-4.379 1.982-3.098 2.617-5.32 6.263-6.178 10.23-.749 2.912-.587 6.114.744 8.836 1.317 2.768 3.762 4.94 6.604 6.054 1.587.624 3.323.484 4.987.357 1.863.111 3.683.929 5.57.513 2.796-.404 4.683-2.852 5.805-5.257.598-1.505 1.532-2.86 1.944-4.44.754-2.087 1.858-4.336 1.056-6.582-1.304-3.615-3.625-6.792-6.284-9.53-2.622-2.374-6.503-2.924-9.869-2.162z"/><path fill="#fffffd" d="M79.543.432c.997-.358 2.106.068 3.082-.39 1.831-.084 3.668-.002 5.498-.034.667.027 1.355-.087 2.003.117 1.085.37 2.286-.096 3.353.378 5.196.315 10.059 2.492 14.544 5.006 2.35 1.516 4.59 3.183 6.926 4.715 2.099 1.122 4.022 2.535 6.075 3.723 1.106.277 2.27.915 3.408.412 1.937-.402 3.656-1.394 5.405-2.267 5.001-2.368 10.358-4.136 15.856-4.776.905-.344 1.924.034 2.816-.394 2.624-.082 5.254-.003 7.884-.037.487.021.998-.058 1.471.103.675.294 1.43.058 2.122.265 3.08.621 6.157 1.463 8.922 2.99 2.138.957 4.003 2.423 6.152 3.36 2.4 1.119 4.712 2.436 7.167 3.426 2.866 1.516 5.853 2.752 8.732 4.236 2.518 1.339 5.267 2.146 7.913 3.196 4.31 1.683 8.594 3.445 12.732 5.527 1.945.667 3.572 1.998 5.514 2.678 3.204 2.013 7.136 2.992 9.713 5.908 1.64 1.577 3.19 3.334 4.07 5.461 1.37 3.723 1.804 7.702 2.463 11.57-.03 1.225.404 2.376.314 3.612.39.807.072 1.73.397 2.547.26.863-.095 1.81.267 2.654.146.432.149.926 0 1.36-.357.903.016 1.916-.378 2.818-.788 3.72-2.881 6.948-4.455 10.364-.606 1.754-1.218 3.508-1.52 5.345-.158 1.161-1.02 1.936-1.833 2.683-.434.844-1.156 1.49-1.868 2.092-2.278 1.218-4.355 2.776-6.678 3.906-.526.47-1.37.584-1.738 1.198 1.127 1.622 2.26 3.239 3.445 4.821 1.389 1.8 2.55 3.768 4 5.52 1.022 1.515 2.098 3.005 3.36 4.328 1.329 2.177 2.847 4.223 4.162 6.41 1.053 1.294 1.186 3.014 1.49 4.583-.347.905-.127 1.942-.71 2.765-.576 1.373-1.648 2.405-2.677 3.44-.021 1.677-1.619 2.616-2.841 3.463-2.088.887-3.588 2.784-5.76 3.5-2.413 1.125-4.882 2.125-7.253 3.345-.605.46-.828 1.339-.267 1.934 1.556.622 2.408 2.19 3.784 3.09.666.41.931 1.183 1.49 1.702.603.635 1.301 1.193 1.812 1.918.322.55.968.78 1.35 1.286a80.872 80.872 0 0 1 1.89 3.656c1.012 2.022 2.385 3.924 2.819 6.183-.019 1.57.161 3.17-.305 4.697-.566 1.873-1.516 3.664-2.902 5.059-1.05 1.484-2.601 2.524-3.614 4.04-1.313 1.487-2.215 3.249-3.331 4.876-1.014 1.111-1.879 2.34-3.003 3.352-.704 1.122-1.76 1.942-2.646 2.91-1.257 1.88-3.247 3.128-4.5 5.015-1.424 1.225-2.498 2.894-4.295 3.643-1.828 1.12-4.008 1.26-5.998 1.945-5.313 1.352-10.46 3.28-15.674 4.966-2.519.95-5.064 1.89-7.726 2.336-.897.064-1.83-.132-2.683.244-1.984.106-3.98-.045-5.963.066-1.138.497-2.427-.035-3.564.455-3.533.06-6.673 2.159-10.194 2.19-.37.104-.73.257-1.12.23h-6.085c-.556.051-1.037-.317-1.59-.264h-16.666c-.556.05-1.035-.317-1.588-.264-4.841-.008-9.686.013-14.528-.008-1.352-.46-2.799-.151-4.196-.291-.995-.453-2.109-.059-3.127-.328-.757-.334-1.612-.027-2.384-.265-.828-.355-1.768.013-2.598-.33-6.268-.768-12.6-1.84-18.643-3.837-5.983-2.006-11.861-4.318-17.526-7.091-1.204-.693-2.551-1.072-3.726-1.823-1.368-.886-2.942-1.402-4.286-2.326a142.99 142.99 0 0 1-14.012-8.477 308.248 308.248 0 0 0-6.257-4.056c-2.125-1.016-3.723-2.836-5.713-4.08-1.159-1.058-2.47-1.934-3.648-2.969-1.84-1.121-3.366-2.664-5.186-3.81-1.037-.727-2.27-1.195-3.114-2.174-1.582-1.675-3.368-3.168-4.757-5.014-.802-.725-1.326-1.683-2.114-2.416-1.768-2.389-3.887-4.567-5.11-7.316-.698-1.33-1.04-2.801-1.301-4.267-.032-5.273.01-10.552-.019-15.825-.407-1.28-.235-2.643-.248-3.969.563-2.313.079-4.75.29-7.112.474-1.077.043-2.283.329-3.392.402-.997-.07-2.125.333-3.122.273-.947-.108-1.982.265-2.91.243-.789-.048-1.649.195-2.435.381-.913-.05-1.947.334-2.857.24-.789-.048-1.646.196-2.434.378-.913-.043-1.945.33-2.86.704-7.507 4.08-14.548 8.567-20.53 1.122-1.833 2.68-3.325 3.919-5.072 2.492-2.569 4.625-5.445 6.824-8.265 1.203-2.046 2.754-3.89 3.717-6.078 1.273-3.622.87-7.572 2.368-11.136.47-1.966 1.527-3.717 2.402-5.522 1.4-2.288 2.826-4.561 4.321-6.789 1.267-1.56 2.363-3.262 3.638-4.823 1.376-1.546 2.418-3.374 3.966-4.768 1.199-1.19 2.379-2.395 3.583-3.577a117.353 117.353 0 0 1 4.527-3.662c1.587-.85 2.91-2.109 4.553-2.852 1.13-.881 2.45-1.44 3.699-2.12.884-.711 2.082-.822 2.963-1.547 3.099-1.397 6.157-2.895 9.311-4.17 2.78-1.365 5.847-2.022 8.887-2.487m1.448 1.18c-2.138.288-4.265.709-6.334 1.33-2.122.538-4.051 1.604-6.078 2.395-5.125 2.336-10.274 4.694-15.042 7.707-1.352 1.053-2.876 1.863-4.204 2.95-1.196.815-2.18 1.879-3.337 2.742-1.524 1.563-3.206 2.992-4.503 4.76-1.664 2.132-3.4 4.212-4.924 6.447-.849.87-1.317 2.014-2.087 2.945-1.757 2.794-3.646 5.535-4.869 8.618-.666 1.96-1.378 3.918-1.711 5.969-.328 2.58-.455 5.278-1.596 7.665-2.44 4.445-5.651 8.395-8.892 12.269-.614.624-1.262 1.222-1.752 1.955-4.455 5.363-8.533 11.258-10.586 17.992-1.38 3.955-1.537 8.178-1.992 12.293-.27.937-.04 1.929-.312 2.865-.199.805-.027 1.643-.186 2.453-.306 1.164-.076 2.39-.423 3.55.053 1.678-.415 3.297-.315 4.98-.524 2.329-.058 4.742-.304 7.1-.341 1.24-.267 2.558.037 3.796.064 5.194-.003 10.388.03 15.58.277 2.805 1.563 5.401 3.172 7.676 3.037 3.818 6.024 7.695 9.593 11.036 1.252 1.093 2.792 1.765 4.09 2.794 2.038 1.585 4.12 3.107 6.158 4.692 1.852 1.606 3.915 2.947 5.78 4.545 4.345 2.437 8.356 5.413 12.579 8.051a172.267 172.267 0 0 0 16.03 8.84c6.454 3.32 13.27 5.86 20.144 8.165 8.062 2.307 16.42 3.4 24.733 4.11 1.519.372 3.122-.083 4.635.393 4.837.066 9.681-.003 14.52.032.54.01 1.05.24 1.593.251 5.633.037 11.271-.034 16.904.032 1.741.442 3.548.161 5.324.246 1.153.106 2.256-.301 3.405-.299 1.481-.27 2.937-.693 4.36-1.196 1.69-.6 3.48-.812 5.239-1.119.976-.09 1.976.058 2.931-.24 1.977-.194 3.977.068 5.956-.122.945-.307 1.942-.14 2.913-.257 2.93-.53 5.67-1.73 8.496-2.627 5.757-1.913 11.486-3.94 17.388-5.36 2.149-.5 4.4-1.42 5.739-3.26 1.378-1.44 2.842-2.797 4.194-4.26.923-1.355 2.283-2.318 3.265-3.62 1.889-2.185 4.008-4.223 5.376-6.802 1.06-1.477 2.074-3.016 3.429-4.25 1.032-.918 1.765-2.1 2.754-3.06 1.506-2.067 2.498-4.612 2.344-7.2-.013-1.836-1.204-3.344-1.942-4.948-.706-1.296-1.28-2.667-2.03-3.934-.46-.934-1.216-1.667-1.899-2.434-1.458-1.884-3.294-3.421-4.942-5.125-.535-.482-1.135-1.022-1.852-1.14-.32-.654-.945-1.207-.85-1.99-.174-1.434 1.114-2.495 2.302-3.003 3.244-1.723 6.903-2.7 9.83-4.98.404-.288.907-.513 1.11-.997 1.662-.37 3.022-1.831 3.398-3.477 1.402-.767 2.196-2.363 2.863-3.78.299-1.826.108-3.869-1.019-5.406-.635-.887-1.111-1.876-1.788-2.73-1.011-1.31-1.696-2.834-2.736-4.12-1.559-1.57-2.699-3.48-4.046-5.218-2.005-3-4.244-5.837-6.262-8.829-.35-.434-.207-1.032-.164-1.537.669-.897 1.688-1.384 2.624-1.945 2.186-1.114 4.183-2.556 6.337-3.725.378-.21.696-.51.982-.831-.064-.344-.151-.685-.23-1.024l.15-.196c.596-.047 1.289-.153 1.67-.666.328-.628.513-1.318.63-2.009.28-1.614.883-3.143 1.402-4.688 1.614-3.471 3.683-6.79 4.503-10.573.635-3.265-.18-6.546-.479-9.803-.505-4.064-1.019-8.165-2.172-12.107-.577-2.087-1.744-4.03-3.326-5.487l-.032-.186-.177-.023c-.85-1.281-2.199-2.098-3.455-2.924-2.577-1.315-5.17-2.598-7.758-3.892-6.89-3.622-14.071-6.675-21.407-9.274-1.995-.74-3.842-1.801-5.755-2.712-2.817-1.174-5.46-2.738-8.29-3.889-2.95-1.564-6.069-2.805-8.892-4.601-4.543-2.778-9.765-4.503-15.087-4.752-1.95.01-3.897.005-5.844 0-6.168.5-12.353 1.85-17.986 4.493-2.964 1.116-5.676 3.27-8.978 3.19-1.238-.177-2.54-.447-3.558-1.22-2.723-1.785-5.59-3.343-8.237-5.248-6.122-4.578-13.528-7.795-21.254-7.853-1.743-.434-3.556-.156-5.331-.241-1.249-.111-2.44.376-3.688.283z"/></svg>